<?xml version="1.0" encoding="UTF-8"?>
<svg version="1.1" xmlns="http://www.w3.org/2000/svg" width="500" height="500">
<path d="M0 0 C2.96133382 1.94145537 4.39315975 4.06076696 5.8828125 7.234375 C6.1328125 10.109375 6.1328125 10.109375 5.8828125 12.234375 C2.82926247 12.53374265 -0.07332165 12.67438962 -3.1171875 12.234375 C-3.9215625 11.409375 -4.7259375 10.584375 -5.5546875 9.734375 C-8.46881428 6.89132448 -9.25962049 6.7808065 -13.1796875 6.609375 C-17.04735017 6.78178195 -17.77251688 6.88970438 -20.6171875 9.734375 C-21.1121875 10.559375 -21.6071875 11.384375 -22.1171875 12.234375 C-22.7771875 12.234375 -23.4371875 12.234375 -24.1171875 12.234375 C-23.97552393 14.15135437 -23.82869166 16.06795223 -23.6796875 17.984375 C-23.59847656 19.05171875 -23.51726562 20.1190625 -23.43359375 21.21875 C-23.32917969 22.21390625 -23.22476563 23.2090625 -23.1171875 24.234375 C-23.04371094 24.98203125 -22.97023437 25.7296875 -22.89453125 26.5 C-22.22082683 28.46273248 -22.22082683 28.46273248 -19.91796875 29.4765625 C-16.90964788 30.29052937 -14.41470574 30.4343152 -11.3046875 30.359375 C-10.32886719 30.34132812 -9.35304687 30.32328125 -8.34765625 30.3046875 C-7.61160156 30.28148437 -6.87554687 30.25828125 -6.1171875 30.234375 C-6.1171875 29.574375 -6.1171875 28.914375 -6.1171875 28.234375 C-5.4571875 28.234375 -4.7971875 28.234375 -4.1171875 28.234375 C-3.7871875 26.584375 -3.4571875 24.934375 -3.1171875 23.234375 C-3.82746094 23.24597656 -4.53773438 23.25757813 -5.26953125 23.26953125 C-6.18863281 23.27855469 -7.10773438 23.28757813 -8.0546875 23.296875 C-8.97121094 23.30847656 -9.88773438 23.32007813 -10.83203125 23.33203125 C-13.1171875 23.234375 -13.1171875 23.234375 -14.1171875 22.234375 C-14.2421875 19.234375 -14.2421875 19.234375 -14.1171875 16.234375 C-13.1171875 15.234375 -13.1171875 15.234375 -11.16772461 15.12084961 C-10.3350708 15.12608643 -9.50241699 15.13132324 -8.64453125 15.13671875 C-7.74541016 15.13994141 -6.84628906 15.14316406 -5.91992188 15.14648438 C-4.97439453 15.15486328 -4.02886719 15.16324219 -3.0546875 15.171875 C-2.10529297 15.17638672 -1.15589844 15.18089844 -0.17773438 15.18554688 C2.17584315 15.1973739 4.52929727 15.21385475 6.8828125 15.234375 C6.91168234 19.21352659 6.92956656 23.19265153 6.9453125 27.171875 C6.95369141 28.30818359 6.96207031 29.44449219 6.97070312 30.61523438 C6.97392578 31.69482422 6.97714844 32.77441406 6.98046875 33.88671875 C6.98570557 34.88695068 6.99094238 35.88718262 6.99633789 36.91772461 C6.8828125 39.234375 6.8828125 39.234375 5.8828125 40.234375 C2.4453125 40.484375 2.4453125 40.484375 -1.1171875 40.234375 C-1.7771875 39.244375 -2.4371875 38.254375 -3.1171875 37.234375 C-3.9009375 37.729375 -4.6846875 38.224375 -5.4921875 38.734375 C-11.44379201 41.1971079 -16.72107218 40.91327434 -22.8671875 39.171875 C-28.06022369 36.0760265 -31.72191646 31.80204946 -34.1171875 26.234375 C-35.85136818 18.79418046 -35.04577084 12.57725278 -31.2421875 5.984375 C-22.78107711 -4.96529727 -12.27858636 -6.07327927 0 0 Z " fill="#2F4AD9" transform="translate(209.1171875,223.765625)"/>
<path d="M0 0 C3.3 0 6.6 0 10 0 C10 14.19 10 28.38 10 43 C5.66666667 43 1.33333333 43 -3 43 C-3.99 43.495 -3.99 43.495 -5 44 C-10.60469691 44.37364646 -14.18708503 44.20860998 -19 41 C-23.36822029 36.78525772 -24.81089512 33.55291586 -25.25 27.625 C-24.88624556 22.35056061 -23.06316728 19.33655315 -19.8125 15.25 C-16.33832334 12.47065867 -13.46988507 11.14708945 -9 11 C-6.08997906 11.70395737 -3.73885414 12.72838915 -1 14 C-0.67 9.38 -0.34 4.76 0 0 Z M-11.6875 21.625 C-14.48271977 24.49576625 -14.91729413 26.03011806 -15 30 C-14.66666667 32.33333333 -14.66666667 32.33333333 -13 34 C-9.71213859 35.5942372 -9.71213859 35.5942372 -6 36 C-3.55746679 34.88493049 -1.88643445 33.88643445 0 32 C0.28810011 29.07098221 0.49786764 26.84890925 0 24 C-2.10713446 21.38036865 -2.10713446 21.38036865 -5 20 C-8.95294303 19.65505377 -8.95294303 19.65505377 -11.6875 21.625 Z " fill="#314BD4" transform="translate(317,220)"/>
<path d="M0 0 C3.3 0 6.6 0 10 0 C10 14.19 10 28.38 10 43 C6 43 2 43 -2 43 C-3.485 43.495 -3.485 43.495 -5 44 C-10.61875724 44.3684431 -14.15711379 44.19190228 -19 41 C-23.88203652 35.59017574 -24.34514601 32.14420236 -24.28515625 24.98828125 C-23.81138537 20.02342202 -21.57937916 17.43131236 -18 14.1875 C-13.79746417 11.69224435 -9.83921042 11.74075658 -5 12 C-3.68 12.66 -2.36 13.32 -1 14 C-0.67 9.38 -0.34 4.76 0 0 Z M-12 21 C-12 21.66 -12 22.32 -12 23 C-12.66 23 -13.32 23 -14 23 C-14.94019354 26.99582254 -15.39653373 29.18969194 -13.5625 32.9375 C-10.88664734 35.09123507 -10.2044763 35.36136447 -6.9375 35.5 C-3.2219722 35.24889348 -3.2219722 35.24889348 -1 34 C0.62733051 30.74533898 0.53468062 27.55711138 0 24 C-0.98048938 21.93597315 -0.98048938 21.93597315 -3 21 C-6.60040463 20.09989884 -8.45026831 19.8167561 -12 21 Z " fill="#3750D4" transform="translate(279,220)"/>
<path d="M0 0 C3.72377221 4.13752468 5.12930847 6.50032628 5.09765625 12.0078125 C5.09443359 12.99394531 5.09121094 13.98007813 5.08789062 14.99609375 C5.07951172 16.02863281 5.07113281 17.06117188 5.0625 18.125 C5.05798828 19.16527344 5.05347656 20.20554688 5.04882812 21.27734375 C5.03701952 23.85161962 5.02055075 26.42578146 5 29 C1 29 -3 29 -7 29 C-7.66 29.33 -8.32 29.66 -9 30 C-14.25415201 30.40416554 -17.48874498 29.72773559 -22 27 C-24.47094512 24.52905488 -24.74142468 22.45416252 -25.1015625 19.0390625 C-24.93669024 15.72893484 -23.36820991 14.17085908 -21 12 C-20.01 11.67 -19.02 11.34 -18 11 C-19.65 10.67 -21.3 10.34 -23 10 C-23.375 7.3125 -23.375 7.3125 -23 4 C-16.9471778 -2.33434881 -7.98817723 -4.53383032 0 0 Z M-12 6 C-12.66 7.32 -13.32 8.64 -14 10 C-11.36 10 -8.72 10 -6 10 C-6 9.01 -6 8.02 -6 7 C-7.06645115 5.70366379 -7.06645115 5.70366379 -9.5625 5.9375 C-10.366875 5.958125 -11.17125 5.97875 -12 6 Z M-14 18 C-14 18.99 -14 19.98 -14 21 C-9.34947128 21.26932521 -9.34947128 21.26932521 -5 20 C-5 19.01 -5 18.02 -5 17 C-8.27275026 17 -10.846632 17.29925156 -14 18 Z " fill="#2C49D7" transform="translate(415,234)"/>
<path d="M0 0 C2.96767029 2.63043503 4.73949648 4.21848945 6 8 C6 10.64 6 13.28 6 16 C-0.93 16 -7.86 16 -15 16 C-14.67 17.32 -14.34 18.64 -14 20 C-9.9899066 20.17864631 -9.9899066 20.17864631 -6 20 C-5.34 19.34 -4.68 18.68 -4 18 C-1.8359375 17.5859375 -1.8359375 17.5859375 0.625 17.375 C1.44226563 17.30023438 2.25953125 17.22546875 3.1015625 17.1484375 C3.72804688 17.09945312 4.35453125 17.05046875 5 17 C5.33 17.99 5.66 18.98 6 20 C3.16009762 25.04871534 0.5133456 28.16221813 -5 30 C-11.2069868 30.52601583 -15.97811329 29.92438829 -21 26 C-24.38706963 21.97263502 -25.30538717 18.07441238 -25 12.875 C-24.30854799 8.29589437 -23.03777513 5.48450676 -20 2 C-19.01 1.67 -18.02 1.34 -17 1 C-17 0.34 -17 -0.32 -17 -1 C-11.1452289 -2.41933845 -5.41187398 -2.99077246 0 0 Z M-14 8 C-14 8.66 -14 9.32 -14 10 C-11.03 10 -8.06 10 -5 10 C-5 9.01 -5 8.02 -5 7 C-9.74076549 5.81301999 -9.74076549 5.81301999 -14 8 Z " fill="#2946DA" transform="translate(369,234)"/>
<path d="M0 0 C1.32 0 2.64 0 4 0 C8.31980384 6.1402926 9.51412776 11.7739309 9.5625 19.125 C9.57667969 19.8763623 9.59085938 20.62772461 9.60546875 21.40185547 C9.5104273 26.82991024 8.34382705 31.61626437 5 36 C2.86157227 37.22314453 2.86157227 37.22314453 1 38 C-3.97256528 33.60993523 -6.58710583 25.77625571 -7.171875 19.27734375 C-6.68662028 12.84771868 -4.6680688 4.6680688 0 0 Z " fill="#304BD3" transform="translate(116,205)"/>
<path d="M0 0 C0.66 0 1.32 0 2 0 C3.25390625 1.64453125 3.25390625 1.64453125 4.5625 3.8125 C4.99691406 4.52019531 5.43132812 5.22789062 5.87890625 5.95703125 C9.35256404 12.28707663 8.85203794 20.9468365 8 28 C6.76897975 31.68445221 5.19857033 34.80422099 3 38 C-1 38 -1 38 -2.4140625 36.70703125 C-6.75591311 29.91413594 -8.70689262 22.24703804 -7.62109375 14.1875 C-6.1396602 8.6342405 -3.70597272 4.37114732 0 0 Z " fill="#2B48DA" transform="translate(117,246)"/>
<path d="M0 0 C0.75 2.125 0.75 2.125 1 4 C-7.34506812 9.00704087 -14.1530716 11.01614495 -24 10 C-29.08814593 8.64826198 -33.61541497 6.92305669 -38 4 C-37.9375 2.25 -37.9375 2.25 -37 0 C-25.86172778 -7.64391231 -11.4838996 -6.60511872 0 0 Z " fill="#334DD1" transform="translate(115,242)"/>
<path d="M0 0 C0.495 1.485 0.495 1.485 1 3 C-7.67248737 8.9017966 -15.44531896 11.12511828 -26 10 C-30.77399274 8.63231559 -34.87342783 6.75104811 -39 4 C-37.24700795 -0.26621025 -35.1341112 -1.32493563 -31.07421875 -3.18359375 C-20.67731493 -7.27578376 -9.65765715 -4.82882858 0 0 Z " fill="#3750D3" transform="translate(158,242)"/>
<path d="M0 0 C2.97 0 5.94 0 9 0 C9 14.19 9 28.38 9 43 C6.03 43 3.06 43 0 43 C-0.78168165 39.8732734 -1.11163441 38.04259979 -1.02172852 34.96582031 C-1.00163223 34.18531311 -0.98153595 33.40480591 -0.96083069 32.60064697 C-0.93379562 31.76821472 -0.90676056 30.93578247 -0.87890625 30.078125 C-0.85529526 29.21813904 -0.83168427 28.35815308 -0.80735779 27.47210693 C-0.73091789 24.73122845 -0.64680911 21.99064661 -0.5625 19.25 C-0.50925961 17.38933733 -0.45651935 15.52866027 -0.40429688 13.66796875 C-0.27532941 9.11179209 -0.13948466 4.55586632 0 0 Z " fill="#324BCA" transform="translate(332,220)"/>
<path d="M0 0 C0 0.99 0 1.98 0 3 C1.0725 2.505 2.145 2.01 3.25 1.5 C6.25416808 0.11346089 7.45934895 0 11 0 C11 2.97 11 5.94 11 9 C8.98177083 9.68359375 6.96354167 10.3671875 4.9453125 11.05078125 C2.66005095 11.96335547 2.66005095 11.96335547 1 15 C0.69933846 17.75417318 0.49074701 20.42645147 0.375 23.1875 C0.31699219 24.31188477 0.31699219 24.31188477 0.2578125 25.45898438 C0.16371784 27.30559199 0.08077681 29.1527619 0 31 C-2.97 31 -5.94 31 -9 31 C-9 21.1 -9 11.2 -9 1 C-5.8035914 -0.06546953 -3.34252724 -0.07427838 0 0 Z " fill="#334EDE" transform="translate(228,232)"/>
<path d="M0 0 C3.3 0 6.6 0 10 0 C10 9.9 10 19.8 10 30 C6.7 30 3.4 30 0 30 C0 20.1 0 10.2 0 0 Z " fill="#2A46DA" transform="translate(423,233)"/>
<path d="M0 0 C-0.43173504 6.15222436 -1.65405342 9.81917949 -5 15 C-5.66 15 -6.32 15 -7 15 C-7 15.66 -7 16.32 -7 17 C-10 19 -10 19 -13 19 C-13 19.66 -13 20.32 -13 21 C-15.97 21.66 -18.94 22.32 -22 23 C-21.76077572 15.46443533 -19.95202023 10.73513041 -15 5 C-10.54038787 1.4505128 -5.76903552 -2.13667982 0 0 Z " fill="#4159D0" transform="translate(110,252)"/>
<path d="M0 0 C6.1409478 0.27293101 10.24057987 0.97279835 15 5 C15 5.66 15 6.32 15 7 C15.66 7 16.32 7 17 7 C20.34594658 12.18082051 21.56826496 15.84777564 22 22 C20.58249437 21.88490339 19.16598831 21.75746342 17.75 21.625 C16.96109375 21.55539063 16.1721875 21.48578125 15.359375 21.4140625 C12.914123 20.98492887 11.15163097 20.21399362 9 19 C9 18.34 9 17.68 9 17 C8.4225 16.814375 7.845 16.62875 7.25 16.4375 C3.97999346 14.34832915 2.42150786 11.51636154 1 8 C0.42964429 5.29905931 0.19407821 2.76561448 0 0 Z " fill="#344FD3" transform="translate(88,215)"/>
<path d="M0 0 C8.03297559 0.35702114 12.72669424 2.35925493 18.25 8.375 C21.94281604 12.899183 23.34454131 17.14279781 23 23 C21.58194169 22.71517632 20.16559621 22.42181856 18.75 22.125 C17.96109375 21.96257812 17.1721875 21.80015625 16.359375 21.6328125 C14.03168856 21.00849925 12.10968048 20.15161458 10 19 C10 18.34 10 17.68 10 17 C8.68 16.34 7.36 15.68 6 15 C6 14.34 6 13.68 6 13 C5.34 13 4.68 13 4 13 C3.32942113 11.2097939 2.6636531 9.41778511 2 7.625 C1.62875 6.62726563 1.2575 5.62953125 0.875 4.6015625 C0 2 0 2 0 0 Z " fill="#2946D5" transform="translate(125,252)"/>
<path d="M0 0 C-0.83433087 8.34330873 -4.34838562 14.34200033 -10.76171875 19.65625 C-14.35474849 21.81332195 -17.87363457 22.0668624 -22 22 C-21.65187147 15.50160069 -20.21772011 11.03544136 -16 6 C-10.92713178 1.50561675 -6.748388 -0.14996418 0 0 Z " fill="#334CD1" transform="translate(148,215)"/>
<path d="M0 0 C0 10.23 0 20.46 0 31 C-2.97 31 -5.94 31 -9 31 C-9 21.1 -9 11.2 -9 1 C-2 0 -2 0 0 0 Z " fill="#243EC5" transform="translate(250,232)"/>
<path d="M0 0 C2.04159095 -0.0272616 4.08328963 -0.04651345 6.125 -0.0625 C7.26195312 -0.07410156 8.39890625 -0.08570313 9.5703125 -0.09765625 C13 0 13 0 19 1 C19 7.93 19 14.86 19 22 C17.02 22 15.04 22 13 22 C13.0928125 20.9171875 13.0928125 20.9171875 13.1875 19.8125 C13.21630415 16.90811664 13.21630415 16.90811664 11.4375 14.5 C10 12 10 12 10.3125 9.1875 C10.539375 8.465625 10.76625 7.74375 11 7 C10.28972656 7.01160156 9.57945312 7.02320313 8.84765625 7.03515625 C7.92855469 7.04417969 7.00945312 7.05320313 6.0625 7.0625 C5.14597656 7.07410156 4.22945312 7.08570313 3.28515625 7.09765625 C1 7 1 7 0 6 C-0.04080783 4.00041636 -0.04254356 1.99954746 0 0 Z " fill="#2F49D4" transform="translate(195,240)"/>
<path d="M0 0 C6.6 0 13.2 0 20 0 C20.02682614 3.97921094 20.04675393 7.95824341 20.0625 11.9375 C20.07087891 13.07380859 20.07925781 14.21011719 20.08789062 15.38085938 C20.09272461 17.00024414 20.09272461 17.00024414 20.09765625 18.65234375 C20.10551147 20.15269165 20.10551147 20.15269165 20.11352539 21.68334961 C20 24 20 24 19 25 C15.5625 25.25 15.5625 25.25 12 25 C11.34 24.01 10.68 23.02 10 22 C9.21625 22.495 8.4325 22.99 7.625 23.5 C2.95078158 25.43415935 -1.01442381 25.26602877 -6 25 C-6 24.01 -6 23.02 -6 22 C-5.14535156 21.95101563 -4.29070312 21.90203125 -3.41015625 21.8515625 C-2.30542969 21.77679688 -1.20070312 21.70203125 -0.0625 21.625 C1.03964844 21.55539062 2.14179688 21.48578125 3.27734375 21.4140625 C4.17582031 21.27742188 5.07429687 21.14078125 6 21 C6.33 20.34 6.66 19.68 7 19 C4.36 18.34 1.72 17.68 -1 17 C-1 16.67 -1 16.34 -1 16 C1.64 15.67 4.28 15.34 7 15 C7 14.34 7 13.68 7 13 C7.99 13 8.98 13 10 13 C12.49977543 16.33303391 13 17.73303602 13 22 C14.65 22.33 16.3 22.66 18 23 C18 16.07 18 9.14 18 2 C12.06 1.67 6.12 1.34 0 1 C0 0.67 0 0.34 0 0 Z " fill="#5F6EC5" transform="translate(196,239)"/>
<path d="M0 0 C0.66 0.33 1.32 0.66 2 1 C1.34 2.32 0.68 3.64 0 5 C-0.99 5 -1.98 5 -3 5 C-3 6.32 -3 7.64 -3 9 C-3.66 9 -4.32 9 -5 9 C-5 13.29 -5 17.58 -5 22 C-0.80825346 20.95206337 0.21592961 20.08236365 3 17 C3.33 18.32 3.66 19.64 4 21 C5.98 21.33 7.96 21.66 10 22 C8.68 22.33 7.36 22.66 6 23 C6 24.65 6 26.3 6 28 C8.64 28 11.28 28 14 28 C14 28.66 14 29.32 14 30 C10.79610447 31.60194777 7.48419843 31.3516761 4 31 C-1.26343082 29.14231853 -3.83422673 26.43208258 -7 22 C-8.90378573 17.46020326 -8.53173783 12.39931009 -6.8125 7.875 C-4.86319427 4.7829978 -2.68519009 2.46747197 0 0 Z " fill="#334CC5" transform="translate(300,233)"/>
<path d="M0 0 C-0.96486328 0.36738281 -0.96486328 0.36738281 -1.94921875 0.7421875 C-4.15287479 1.79405915 -4.15287479 1.79405915 -4.64453125 3.8828125 C-5.03671711 9.11803773 -4.72911431 13.80506053 -4 19 C-4.33 19.66 -4.66 20.32 -5 21 C-4.34 21 -3.68 21 -3 21 C-3 20.34 -3 19.68 -3 19 C-2.34 19 -1.68 19 -1 19 C-1.33 20.65 -1.66 22.3 -2 24 C-3.98 24.33 -5.96 24.66 -8 25 C-11.84741775 20.2838105 -13.15052425 18.16349873 -13.1875 12.0625 C-13.20167969 11.00160156 -13.21585938 9.94070312 -13.23046875 8.84765625 C-13 6 -13 6 -11 3 C-8.90625 1.796875 -8.90625 1.796875 -6.5 0.75 C-5.7059375 0.39421875 -4.911875 0.0384375 -4.09375 -0.328125 C-2 -1 -2 -1 0 0 Z " fill="#2F4AD5" transform="translate(268,236)"/>
<path d="M0 0 C0.33 0.99 0.66 1.98 1 3 C0.01 3.495 0.01 3.495 -1 4 C-0.525625 4.433125 -0.05125 4.86625 0.4375 5.3125 C2 7 2 7 3 10 C2.34 10 1.68 10 1 10 C0.67 10.99 0.34 11.98 0 13 C-2.31 13 -4.62 13 -7 13 C-7 12.67 -7 12.34 -7 12 C-5.02 11.67 -3.04 11.34 -1 11 C-1.33 10.34 -1.66 9.68 -2 9 C-3.65 9 -5.3 9 -7 9 C-7.33 10.32 -7.66 11.64 -8 13 C-11.3 12.67 -14.6 12.34 -18 12 C-18.375 9.3125 -18.375 9.3125 -18 6 C-12.31244512 0.04790768 -7.88572007 -0.15462196 0 0 Z " fill="#3750D3" transform="translate(410,232)"/>
<path d="M0 0 C-0.66 1.32 -1.32 2.64 -2 4 C-4.475 3.01 -4.475 3.01 -7 2 C-6.8864371 3.64666203 -6.75882619 5.29236082 -6.625 6.9375 C-6.55539063 7.85402344 -6.48578125 8.77054688 -6.4140625 9.71484375 C-6.27742187 10.46894531 -6.14078125 11.22304687 -6 12 C-5.34 12.33 -4.68 12.66 -4 13 C-4 13.99 -4 14.98 -4 16 C-3.01 15.67 -2.02 15.34 -1 15 C-0.67 20.28 -0.34 25.56 0 31 C-2.97 31 -5.94 31 -9 31 C-9 21.1 -9 11.2 -9 1 C-5.8035914 -0.06546953 -3.34252724 -0.07427838 0 0 Z " fill="#2D47C7" transform="translate(228,232)"/>
<path d="M0 0 C1.6260287 0.06000106 3.25101549 0.1487885 4.875 0.25 C6.23238281 0.31960937 6.23238281 0.31960937 7.6171875 0.390625 C10 1 10 1 11.3203125 3.046875 C11.54460937 3.69140625 11.76890625 4.3359375 12 5 C11.06027344 5.18175781 11.06027344 5.18175781 10.1015625 5.3671875 C9.28429687 5.53476563 8.46703125 5.70234375 7.625 5.875 C6.40683594 6.11863281 6.40683594 6.11863281 5.1640625 6.3671875 C2.81326077 6.86658932 2.81326077 6.86658932 1 9 C0.53603307 11.89223503 0.53603307 11.89223503 0.375 15.125 C0.30023438 16.22070312 0.22546875 17.31640625 0.1484375 18.4453125 C0.09945313 19.28835937 0.05046875 20.13140625 0 21 C-2.31 21.33 -4.62 21.66 -7 22 C-7 17.71 -7 13.42 -7 9 C-6.34 9 -5.68 9 -5 9 C-5 7.68 -5 6.36 -5 5 C-4.360625 4.731875 -3.72125 4.46375 -3.0625 4.1875 C-0.66868314 3.11332248 -0.66868314 3.11332248 0 0 Z " fill="#2B48D7" transform="translate(302,233)"/>
<path d="M0 0 C-1.32228429 5.68582243 -3.40255302 7.7161093 -8 11 C-13.56543087 12.85514362 -18.18848021 12.66095896 -23.4375 10.1875 C-26.4839887 8.63146566 -26.86308867 8.410734 -28 5 C-26.02 5.66 -24.04 6.32 -22 7 C-21.67 6.34 -21.34 5.68 -21 5 C-21 5.99 -21 6.98 -21 8 C-18.69 8.33 -16.38 8.66 -14 9 C-13.67 8.34 -13.34 7.68 -13 7 C-12.67 6.67 -12.34 6.34 -12 6 C-16.455 5.01 -16.455 5.01 -21 4 C-20.67 2.68 -20.34 1.36 -20 0 C-20 0.66 -20 1.32 -20 2 C-15.9899066 2.17864631 -15.9899066 2.17864631 -12 2 C-11.34 1.34 -10.68 0.68 -10 0 C-8.125 -0.44921875 -8.125 -0.44921875 -6 -0.6875 C-5.29875 -0.77386719 -4.5975 -0.86023438 -3.875 -0.94921875 C-2 -1 -2 -1 0 0 Z " fill="#3E54CA" transform="translate(375,252)"/>
<path d="M0 0 C0.66 0 1.32 0 2 0 C3.2890625 1.64453125 3.2890625 1.64453125 4.625 3.8125 C5.07101563 4.52019531 5.51703125 5.22789062 5.9765625 5.95703125 C7 8 7 8 7 11 C6.34 11 5.68 11 5 11 C4.34 9.68 3.68 8.36 3 7 C-0.00384054 7.6954344 -0.00384054 7.6954344 -3 9 C-5.92025574 16.653084 -3.99675495 26.13290982 -1 33.4375 C-0.07564894 35.17562482 -0.07564894 35.17562482 2 36 C2.99 32.04 3.98 28.08 5 24 C5.99 24.33 6.98 24.66 8 25 C7.41892368 28.7602985 6.34800504 31.53035032 4.4375 34.8125 C3.98246094 35.60269531 3.52742188 36.39289063 3.05859375 37.20703125 C2.70925781 37.79871094 2.35992187 38.39039063 2 39 C-1.55081293 37.43259094 -3.271403 35.81987674 -5.10546875 32.3125 C-8.05919726 24.67666035 -8.89507491 16.97337431 -6.0625 9.234375 C-4.39929152 5.7367454 -2.50946649 2.95988356 0 0 Z " fill="#4A5DC9" transform="translate(117,246)"/>
<path d="M0 0 C1.54300781 0.14501953 1.54300781 0.14501953 3.1171875 0.29296875 C6.03115771 0.79629088 8.43472295 1.60634258 11.125 2.8125 C11.17889087 4.77053507 11.21774217 6.72898909 11.25 8.6875 C11.27320313 9.77804688 11.29640625 10.86859375 11.3203125 11.9921875 C11.125 14.8125 11.125 14.8125 9.125 16.8125 C8.135 16.4825 7.145 16.1525 6.125 15.8125 C6.785 15.8125 7.445 15.8125 8.125 15.8125 C8.125 11.8525 8.125 7.8925 8.125 3.8125 C2.6405733 3.06919086 2.6405733 3.06919086 -2.875 2.8125 C-2.875 3.4725 -2.875 4.1325 -2.875 4.8125 C-3.535 4.8125 -4.195 4.8125 -4.875 4.8125 C-5.16077236 9.63117565 -5.16077236 9.63117565 -3.8125 14.1875 C-1.02840041 16.52255127 1.57590698 16.54464392 5.125 16.8125 C5.125 17.1425 5.125 17.4725 5.125 17.8125 C2.815 17.8125 0.505 17.8125 -1.875 17.8125 C-1.875 18.8025 -1.875 19.7925 -1.875 20.8125 C-1.215 21.1425 -0.555 21.4725 0.125 21.8125 C0.125 22.4725 0.125 23.1325 0.125 23.8125 C1.445 24.4725 2.765 25.1325 4.125 25.8125 C-0.79627034 25.97932272 -4.37843896 26.06078052 -8.875 23.8125 C-8.215 23.1525 -7.555 22.4925 -6.875 21.8125 C-5.885 21.8125 -4.895 21.8125 -3.875 21.8125 C-3.545 20.1625 -3.215 18.5125 -2.875 16.8125 C-3.535 16.8125 -4.195 16.8125 -4.875 16.8125 C-4.875 17.4725 -4.875 18.1325 -4.875 18.8125 C-5.535 18.8125 -6.195 18.8125 -6.875 18.8125 C-6.854375 18.090625 -6.83375 17.36875 -6.8125 16.625 C-6.78156665 13.84295206 -6.78156665 13.84295206 -7.4375 11.3125 C-7.92642767 8.51862763 -7.57618299 6.53932276 -6.875 3.8125 C-7.535 3.4825 -8.195 3.1525 -8.875 2.8125 C-6.24002478 -0.703829 -4.20328144 -0.44548494 0 0 Z " fill="#4258C9" transform="translate(269.875,238.1875)"/>
<path d="M0 0 C0 2.64 0 5.28 0 8 C-7.59 8 -15.18 8 -23 8 C-22.67 5.69 -22.34 3.38 -22 1 C-20.515 1.99 -20.515 1.99 -19 3 C-16.94290404 3.24055468 -16.94290404 3.24055468 -14.8125 3.125 C-13.554375 3.08375 -12.29625 3.0425 -11 3 C-10.67 1.68 -10.34 0.36 -10 -1 C-3.375 -2.25 -3.375 -2.25 0 0 Z " fill="#2843C3" transform="translate(375,242)"/>
<path d="M0 0 C3.3 0 6.6 0 10 0 C10 9.9 10 19.8 10 30 C6.7 30 3.4 30 0 30 C0 20.1 0 10.2 0 0 Z M2 1 C2 9.91 2 18.82 2 28 C3.98 28.33 5.96 28.66 8 29 C8 19.76 8 10.52 8 1 C6.02 1 4.04 1 2 1 Z " fill="#6672C5" transform="translate(423,233)"/>
<path d="M0 0 C3.3 0 6.6 0 10 0 C10 14.19 10 28.38 10 43 C8.02 43 6.04 43 4 43 C4.33 42.34 4.66 41.68 5 41 C5.99 41 6.98 41 8 41 C8 28.13 8 15.26 8 2 C6.02 2 4.04 2 2 2 C1.67 6.95 1.34 11.9 1 17 C0.34 16.67 -0.32 16.34 -1 16 C-0.67 10.72 -0.34 5.44 0 0 Z " fill="#5A68C0" transform="translate(317,220)"/>
<path d="M0 0 C0.92683594 0.08765625 1.85367188 0.1753125 2.80859375 0.265625 C5.61407226 0.75907087 7.96428535 1.59942945 10.5625 2.75 C9.2425 4.07 7.9225 5.39 6.5625 6.75 C5.9025 5.43 5.2425 4.11 4.5625 2.75 C0.6025 2.75 -3.3575 2.75 -7.4375 2.75 C-7.7675 4.73 -8.0975 6.71 -8.4375 8.75 C-0.5175 8.255 -0.5175 8.255 7.5625 7.75 C6.9025 9.07 6.2425 10.39 5.5625 11.75 C5.2325 11.42 4.9025 11.09 4.5625 10.75 C1.18306026 10.31910604 -2.06553417 10.24447402 -5.4375 10.75 C-7.9779226 13.08830958 -7.9779226 13.08830958 -9.4375 15.75 C-10.0975 15.75 -10.7575 15.75 -11.4375 15.75 C-11.375625 14.491875 -11.31375 13.23375 -11.25 11.9375 C-11.20117078 8.58041021 -11.20117078 8.58041021 -12.9375 5.75 C-13.4325 5.42 -13.9275 5.09 -14.4375 4.75 C-12.77901823 3.73648336 -11.11084039 2.73879205 -9.4375 1.75 C-8.83292969 1.38132813 -8.22835937 1.01265625 -7.60546875 0.6328125 C-4.84819462 -0.4899694 -2.94901459 -0.31085313 0 0 Z " fill="#4256C2" transform="translate(196.4375,220.25)"/>
<path d="M0 0 C4.5254131 -0.17746718 7.99305333 -0.21436526 12 2 C14.8125 4.625 14.8125 4.625 17 7 C16.67 7.66 16.34 8.32 16 9 C10.87600982 10.24054499 6.14233669 9.9794927 1 9 C0.01 9.33 -0.98 9.66 -2 10 C-2 10.66 -2 11.32 -2 12 C0.64 11.67 3.28 11.34 6 11 C6.33 11.66 6.66 12.32 7 13 C5.52168779 13.19412181 4.04230684 13.38012131 2.5625 13.5625 C1.73878906 13.66691406 0.91507812 13.77132812 0.06640625 13.87890625 C-0.61550781 13.91886719 -1.29742187 13.95882812 -2 14 C-3 13 -3 13 -3.0625 9.9375 C-3.041875 8.968125 -3.02125 7.99875 -3 7 C-2.36191406 6.79503906 -1.72382813 6.59007812 -1.06640625 6.37890625 C-0.24011719 6.10949219 0.58617187 5.84007812 1.4375 5.5625 C2.26121094 5.29566406 3.08492188 5.02882812 3.93359375 4.75390625 C5.96219588 4.17844506 5.96219588 4.17844506 7 3 C4.69 2.34 2.38 1.68 0 1 C0 0.67 0 0.34 0 0 Z " fill="#3751D3" transform="translate(357,232)"/>
<path d="M0 0 C3.4375 1.25 3.4375 1.25 7 3 C7.9375 5.1875 7.9375 5.1875 8 7 C-0.87625983 12.3257559 -8.88781665 14.57623663 -19.33203125 12.546875 C-20.90840223 12.09740059 -22.45949174 11.56018482 -24 11 C-22.1875 9.9375 -22.1875 9.9375 -20 9 C-19.01 9.33 -18.02 9.66 -17 10 C-14.60509014 10.06970052 -12.20832309 10.08448003 -9.8125 10.0625 C-8.54019531 10.05347656 -7.26789063 10.04445312 -5.95703125 10.03515625 C-4.98121094 10.02355469 -4.00539063 10.01195312 -3 10 C-3.0309375 9.20980469 -3.061875 8.41960937 -3.09375 7.60546875 C-3 5 -3 5 -1.5 3.3125 C-1.005 2.879375 -0.51 2.44625 0 2 C0 1.34 0 0.68 0 0 Z " fill="#4259C8" transform="translate(108,239)"/>
<path d="M0 0 C3.63 0 7.26 0 11 0 C11.33 0.99 11.66 1.98 12 3 C10.02 3.99 10.02 3.99 8 5 C8.33 5.99 8.66 6.98 9 8 C8 9.5625 8 9.5625 6 11 C3.23385218 10.96726452 0.73969453 10.49404328 -2 10 C-2 7 -2 7 0 4 C0 2.68 0 1.36 0 0 Z " fill="#2A47D8" transform="translate(97,239)"/>
<path d="M0 0 C2.4375 1.25 2.4375 1.25 4.4375 4.25 C4.0625 6.9375 4.0625 6.9375 3.4375 9.25 C-1.83558448 11.40717092 -1.83558448 11.40717092 -4.875 10.75 C-6.5625 9.25 -6.5625 9.25 -7.4375 6.3125 C-7.5625 3.25 -7.5625 3.25 -5.5625 0.25 C-2.5625 -0.75 -2.5625 -0.75 0 0 Z " fill="#344CC2" transform="translate(384.5625,252.75)"/>
<path d="M0 0 C0.75 3.25 0.75 3.25 1 7 C-0.625 9.5 -0.625 9.5 -3 11 C-5.75 10.75 -5.75 10.75 -8 10 C-8 9.34 -8 8.68 -8 8 C-8.66 8 -9.32 8 -10 8 C-10.25 5.1875 -10.25 5.1875 -10 2 C-6.92702006 -1.66393762 -4.38919352 -1.09729838 0 0 Z " fill="#3248CE" transform="translate(250,220)"/>
<path d="M0 0 C2 2 2 2 2.125 5.125 C2.08375 6.07375 2.0425 7.0225 2 8 C1.34 8 0.68 8 0 8 C0 8.66 0 9.32 0 10 C-1.6875 10.75 -1.6875 10.75 -4 11 C-6.8125 9.5 -6.8125 9.5 -9 7 C-8.8125 3.25 -8.8125 3.25 -8 0 C-4.67679974 -1.10773342 -3.30835256 -0.93312508 0 0 Z " fill="#2945DA" transform="translate(431,220)"/>
<path d="M0 0 C3.28040015 2.41713695 5.51677947 4.1796611 7 8 C7.22705078 10.47363281 7.22705078 10.47363281 7.1953125 13.203125 C7.18564453 14.67265625 7.18564453 14.67265625 7.17578125 16.171875 C7.15902344 17.18765625 7.14226562 18.2034375 7.125 19.25 C7.11597656 20.28125 7.10695313 21.3125 7.09765625 22.375 C7.07412011 24.91690287 7.04124023 27.4583328 7 30 C4.03 30 1.06 30 -2 30 C-2 29.34 -2 28.68 -2 28 C-0.02 28 1.96 28 4 28 C3.83701416 27.43829102 3.67402832 26.87658203 3.50610352 26.29785156 C2.97014902 23.86446819 2.88638604 21.72377772 2.90234375 19.234375 C2.90556641 18.34492188 2.90878906 17.45546875 2.91210938 16.5390625 C2.92048828 15.61867187 2.92886719 14.69828125 2.9375 13.75 C2.94201172 12.81414062 2.94652344 11.87828125 2.95117188 10.9140625 C2.96293082 8.60930959 2.97936574 6.30468773 3 4 C1.68 3.34 0.36 2.68 -1 2 C-0.67 1.34 -0.34 0.68 0 0 Z " fill="#5062C4" transform="translate(413,233)"/>
<path d="M0 0 C7.06130818 0.31383592 11.68068054 1.44413134 16.69921875 6.8203125 C18.17366534 8.51816009 19.60386443 10.23750262 21 12 C20.67 12.66 20.34 13.32 20 14 C19.34 14 18.68 14 18 14 C17.731875 13.195625 17.46375 12.39125 17.1875 11.5625 C16.795625 10.716875 16.40375 9.87125 16 9 C15.01 8.67 14.02 8.34 13 8 C13 7.01 13 6.02 13 5 C12.1028125 5.2784375 12.1028125 5.2784375 11.1875 5.5625 C9 6 9 6 6 5 C5.34 6.98 4.68 8.96 4 11 C1.6870518 8.6870518 1.50419025 7.52095125 0.875 4.375 C0.70742187 3.55773437 0.53984375 2.74046875 0.3671875 1.8984375 C0.24601562 1.27195313 0.12484375 0.64546875 0 0 Z " fill="#364BC6" transform="translate(125,252)"/>
<path d="M0 0 C0.66 0 1.32 0 2 0 C2.05399736 1.45792884 2.09279177 2.91642712 2.125 4.375 C2.14820313 5.18710938 2.17140625 5.99921875 2.1953125 6.8359375 C2 9 2 9 0 11 C-2.3828125 10.7578125 -2.3828125 10.7578125 -5.125 10.125 C-6.03507812 9.92132813 -6.94515625 9.71765625 -7.8828125 9.5078125 C-8.58148438 9.34023437 -9.28015625 9.17265625 -10 9 C-10.33 10.32 -10.66 11.64 -11 13 C-11.66 13 -12.32 13 -13 13 C-13 12.01 -13 11.02 -13 10 C-13.928125 10.515625 -14.85625 11.03125 -15.8125 11.5625 C-19 13 -19 13 -22 12 C-16.14360919 6.80910814 -13.01868256 5.57042772 -5 6 C-2.5625 7 -2.5625 7 -1 8 C-0.67 5.36 -0.34 2.72 0 0 Z " fill="#3D53C6" transform="translate(279,226)"/>
<path d="M0 0 C2.04159095 -0.0272616 4.08328963 -0.04651345 6.125 -0.0625 C7.26195312 -0.07410156 8.39890625 -0.08570313 9.5703125 -0.09765625 C12.8129156 -0.005327 15.81932612 0.38610094 19 1 C19 1.33 19 1.66 19 2 C17.02 2.33 15.04 2.66 13 3 C12.67 3.99 12.34 4.98 12 6 C8.04 6 4.08 6 0 6 C0 4.02 0 2.04 0 0 Z " fill="#1A32C0" transform="translate(195,240)"/>
<path d="M0 0 C2.875 0.25 2.875 0.25 6 1 C7.375 3.0625 7.375 3.0625 8 5 C7.01 5.495 7.01 5.495 6 6 C6.66 7.32 7.32 8.64 8 10 C4.90680414 10.85329541 2.20663885 11 -1 11 C-1 10.34 -1 9.68 -1 9 C-2.32 8.67 -3.64 8.34 -5 8 C-4.67 7.01 -4.34 6.02 -4 5 C-0.535 4.505 -0.535 4.505 3 4 C3 3.01 3 2.02 3 1 C2.01 0.67 1.02 0.34 0 0 Z " fill="#2A44CD" transform="translate(407,250)"/>
<path d="M0 0 C0.66 0 1.32 0 2 0 C2 4.62 2 9.24 2 14 C2.66 14 3.32 14 4 14 C4 15.98 4 17.96 4 20 C4.99 20 5.98 20 7 20 C7.33 21.32 7.66 22.64 8 24 C9.32 24 10.64 24 12 24 C12 24.66 12 25.32 12 26 C7.0235184 24.7558796 4.84400624 23.26600936 2 19 C-1.3367912 13.08422366 -1.50991288 6.5429558 0 0 Z " fill="#3A53BA" transform="translate(175,235)"/>
<path d="M0 0 C1.58409994 0.11487748 3.16728963 0.24234508 4.75 0.375 C6.07257813 0.47941406 6.07257813 0.47941406 7.421875 0.5859375 C9.99066382 0.99850055 11.75841015 1.71160957 14 3 C13.01 4.485 13.01 4.485 12 6 C9.6875 6.36328125 9.6875 6.36328125 7 6.3125 C6.113125 6.30863281 5.22625 6.30476563 4.3125 6.30078125 C2 6 2 6 0 4 C0 2.68 0 1.36 0 0 Z " fill="#2844D1" transform="translate(190,255)"/>
<path d="M0 0 C-0.33 1.98 -0.66 3.96 -1 6 C-3.97 5.505 -3.97 5.505 -7 5 C-7.33 13.25 -7.66 21.5 -8 30 C-8.33 30 -8.66 30 -9 30 C-9 20.1 -9 10.2 -9 0 C-2 -1 -2 -1 0 0 Z " fill="#5970D4" transform="translate(250,233)"/>
<path d="M0 0 C1.21236328 0.01353516 1.21236328 0.01353516 2.44921875 0.02734375 C3.37154297 0.04474609 3.37154297 0.04474609 4.3125 0.0625 C4.9725 2.0425 5.6325 4.0225 6.3125 6.0625 C5.6525 6.7225 4.9925 7.3825 4.3125 8.0625 C4.3125 7.4025 4.3125 6.7425 4.3125 6.0625 C1.0125 6.3925 -2.2875 6.7225 -5.6875 7.0625 C-5.3575 6.0725 -5.0275 5.0825 -4.6875 4.0625 C-5.6775 3.7325 -6.6675 3.4025 -7.6875 3.0625 C-7.6875 2.4025 -7.6875 1.7425 -7.6875 1.0625 C-4.80538698 0.10179566 -2.98899956 -0.04331883 0 0 Z " fill="#263FC4" transform="translate(406.6875,243.9375)"/>
<path d="M0 0 C0.66 0.33 1.32 0.66 2 1 C5 2.33333333 5 2.33333333 8 1 C8 1.99 8 2.98 8 4 C9.093125 3.835 10.18625 3.67 11.3125 3.5 C15 3 15 3 18 3 C15.21999924 5.90636443 13.89015947 6.93152619 9.75 7.25 C5.68805377 6.97920358 3.42611935 6.15128424 0 4 C-0.66 3.01 -1.32 2.02 -2 1 C-1.34 0.67 -0.68 0.34 0 0 Z " fill="#5468C7" transform="translate(393,257)"/>
<path d="M0 0 C0.99 0.33 1.98 0.66 3 1 C2.34 6.28 1.68 11.56 1 17 C-0.32 16.34 -1.64 15.68 -3 15 C-3.75 12.375 -3.75 12.375 -4 10 C-3.34 10 -2.68 10 -2 10 C-1.67 8.35 -1.34 6.7 -1 5 C-1.66 5 -2.32 5 -3 5 C-1.125 1.125 -1.125 1.125 0 0 Z " fill="#2741C9" transform="translate(183,228)"/>
<path d="M0 0 C-0.4979837 3.73487777 -0.87491756 5.81237635 -3 9 C-3 7.35 -3 5.7 -3 4 C-4.98 4.99 -4.98 4.99 -7 6 C-7 5.34 -7 4.68 -7 4 C-7.99 4 -8.98 4 -10 4 C-10 4.66 -10 5.32 -10 6 C-11.98 6.33 -13.96 6.66 -16 7 C-10.9245693 1.48953238 -7.51112722 -0.34935475 0 0 Z " fill="#4658C3" transform="translate(148,215)"/>
<path d="M0 0 C4.07884045 1.35961348 4.93816372 3.30291425 7 7 C7.25 9.875 7.25 9.875 7 12 C3.96663814 12.22893297 1.02534949 12.36475845 -2 12 C-4.0625 10 -4.0625 10 -5 8 C-2.36 8.33 0.28 8.66 3 9 C2.67 6.69 2.34 4.38 2 2 C1.34 2 0.68 2 0 2 C0 1.34 0 0.68 0 0 Z " fill="#6D7BC0" transform="translate(208,224)"/>
<path d="M0 0 C0 0.66 0 1.32 0 2 C1.65 2 3.3 2 5 2 C4.01 2.495 4.01 2.495 3 3 C3 3.66 3 4.32 3 5 C4.32 5.66 5.64 6.32 7 7 C5.35 7 3.7 7 2 7 C1.67 7.99 1.34 8.98 1 10 C1 9.01 1 8.02 1 7 C0.34 7 -0.32 7 -1 7 C-1.33 5.68 -1.66 4.36 -2 3 C-2.66 3 -3.32 3 -4 3 C-4 3.66 -4 4.32 -4 5 C-4.66 5 -5.32 5 -6 5 C-6 5.66 -6 6.32 -6 7 C-6.99 6.67 -7.98 6.34 -9 6 C-4.53846154 0 -4.53846154 0 0 0 Z " fill="#405AE0" transform="translate(399,245)"/>
<path d="M0 0 C0.99 0.33 1.98 0.66 3 1 C3 1.66 3 2.32 3 3 C-3.27087737 6.71607548 -7.75460274 7.53449652 -15 7 C-15 6.01 -15 5.02 -15 4 C-14.16855469 3.96261719 -13.33710938 3.92523438 -12.48046875 3.88671875 C-11.39378906 3.82097656 -10.30710938 3.75523437 -9.1875 3.6875 C-8.10855469 3.62949219 -7.02960938 3.57148438 -5.91796875 3.51171875 C-2.82502483 2.96931493 -1.86977097 2.44710376 0 0 Z " fill="#6A78CA" transform="translate(205,257)"/>
<path d="M0 0 C0.33 0.66 0.66 1.32 1 2 C2.64363134 2.72159424 4.31050386 3.39351421 6 4 C5.01 4.495 5.01 4.495 4 5 C4.66 6.98 5.32 8.96 6 11 C4.3125 12.125 4.3125 12.125 2 13 C-0.75 12.125 -0.75 12.125 -3 11 C-2.34 10.67 -1.68 10.34 -1 10 C-0.34 10.33 0.32 10.66 1 11 C1 10.34 1 9.68 1 9 C0.01 8.67 -0.98 8.34 -2 8 C-1.34 5.36 -0.68 2.72 0 0 Z " fill="#4158D0" transform="translate(186,250)"/>
<path d="M0 0 C1.98 0 3.96 0 6 0 C6.87867729 3.73437848 7.08912219 7.16774573 7 11 C5.68 10.34 4.36 9.68 3 9 C3 8.34 3 7.68 3 7 C2.34 7 1.68 7 1 7 C0.67 4.69 0.34 2.38 0 0 Z " fill="#364ABD" transform="translate(88,215)"/>
<path d="M0 0 C2.31 0 4.62 0 7 0 C7 0.99 7 1.98 7 3 C8.32 3.33 9.64 3.66 11 4 C10.67 5.32 10.34 6.64 10 8 C3.73913043 6.95652174 3.73913043 6.95652174 1 5 C0.25 2.375 0.25 2.375 0 0 Z " fill="#2D47DB" transform="translate(131,257)"/>
<path d="M0 0 C1.25 2.5625 1.25 2.5625 2 5 C1.34 5 0.68 5 0 5 C-0.33 5.99 -0.66 6.98 -1 8 C-3.31 8 -5.62 8 -8 8 C-8 7.67 -8 7.34 -8 7 C-6.02 6.67 -4.04 6.34 -2 6 C-2.33 5.34 -2.66 4.68 -3 4 C-5.41645782 3.83312552 -5.41645782 3.83312552 -8 4 C-8.66 4.66 -9.32 5.32 -10 6 C-9.8125 3.625 -9.8125 3.625 -9 1 C-5.86930823 -0.8614924 -3.33982106 -1.72749365 0 0 Z " fill="#566DDC" transform="translate(411,237)"/>
<path d="M0 0 C4.120625 0.88299107 7.072115 1.88013879 9.8125 5.1875 C12.00990884 7.43114118 12.00990884 7.43114118 15.75 6.75 C16.8225 6.5025 17.895 6.255 19 6 C19 7.65 19 9.3 19 11 C17.58194169 10.71517632 16.16559621 10.42181856 14.75 10.125 C13.96109375 9.96257812 13.1721875 9.80015625 12.359375 9.6328125 C10.03168856 9.00849925 8.10968048 8.15161458 6 7 C6 6.34 6 5.68 6 5 C4.68 4.34 3.36 3.68 2 3 C2 2.34 2 1.68 2 1 C1.34 0.67 0.68 0.34 0 0 Z " fill="#4B5BBC" transform="translate(129,264)"/>
<path d="M0 0 C3.3 0.33 6.6 0.66 10 1 C10 1.33 10 1.66 10 2 C7.69 2 5.38 2 3 2 C3 2.99 3 3.98 3 5 C3.66 5.33 4.32 5.66 5 6 C5 6.66 5 7.32 5 8 C6.32 8.66 7.64 9.32 9 10 C4.07872966 10.16682272 0.49656104 10.24828052 -4 8 C-3.34 7.34 -2.68 6.68 -2 6 C-1.01 6 -0.02 6 1 6 C1.33 4.35 1.66 2.7 2 1 C1.34 0.67 0.68 0.34 0 0 Z " fill="#6474D1" transform="translate(265,254)"/>
<path d="M0 0 C0.66 0 1.32 0 2 0 C1.48357735 5.29333218 -0.09192918 8.63789377 -3 13 C-3.99 13.33 -4.98 13.66 -6 14 C-7.5 12.6875 -7.5 12.6875 -9 11 C-9 10.01 -9 9.02 -9 8 C-7.8553125 8.2784375 -7.8553125 8.2784375 -6.6875 8.5625 C-3.91032625 9.22819173 -3.91032625 9.22819173 -1 8 C-0.67 5.36 -0.34 2.72 0 0 Z " fill="#4B5CC4" transform="translate(123,229)"/>
<path d="M0 0 C1.2065625 0.0309375 1.2065625 0.0309375 2.4375 0.0625 C1.4475 0.7225 0.4575 1.3825 -0.5625 2.0625 C-2.11623466 8.69610967 -1.89931216 15.71826534 -2.125 22.5 C-2.16818359 23.70849609 -2.21136719 24.91699219 -2.25585938 26.16210938 C-2.36139404 29.12880606 -2.46350714 32.09557902 -2.5625 35.0625 C-2.8925 35.0625 -3.2225 35.0625 -3.5625 35.0625 C-3.5871519 30.23869198 -3.60533693 25.41492033 -3.61743164 20.59106445 C-3.62247174 18.94880536 -3.62930378 17.30655077 -3.63793945 15.66430664 C-3.65001926 13.30874521 -3.65573139 10.95324291 -3.66015625 8.59765625 C-3.66531754 7.85910904 -3.67047882 7.12056183 -3.67579651 6.3596344 C-3.6759925 4.59351912 -3.62444719 2.82752854 -3.5625 1.0625 C-2.5625 0.0625 -2.5625 0.0625 0 0 Z " fill="#253FD7" transform="translate(336.5625,220.9375)"/>
<path d="M0 0 C0.99 0.33 1.98 0.66 3 1 C2.41892368 4.7602985 1.34800504 7.53035032 -0.5625 10.8125 C-1.01753906 11.60269531 -1.47257812 12.39289063 -1.94140625 13.20703125 C-2.46541016 14.09455078 -2.46541016 14.09455078 -3 15 C-7.18189449 13.22010276 -8.19368173 11.15453202 -10 7 C-9.01 7 -8.02 7 -7 7 C-6.566875 7.9590625 -6.566875 7.9590625 -6.125 8.9375 C-5.17176549 11.15206079 -5.17176549 11.15206079 -3 12 C-2.01 8.04 -1.02 4.08 0 0 Z " fill="#5C69C1" transform="translate(122,270)"/>
<path d="M0 0 C0.66 0.33 1.32 0.66 2 1 C0.25 4.875 0.25 4.875 -2 6 C-1.67 7.32 -1.34 8.64 -1 10 C-5.75 8.125 -5.75 8.125 -8 7 C-6.89300099 3.78970286 -5.98396175 2.99031023 -3 1.1875 C-1.515 0.5996875 -1.515 0.5996875 0 0 Z " fill="#5568C5" transform="translate(127,239)"/>
<path d="M0 0 C0.74886475 0.00523682 1.49772949 0.01047363 2.26928711 0.01586914 C3.07817383 0.0190918 3.88706055 0.02231445 4.72045898 0.02563477 C5.5705957 0.03401367 6.42073242 0.04239258 7.29663086 0.05102539 C8.15063477 0.05553711 9.00463867 0.06004883 9.88452148 0.06469727 C12.00108749 0.07652166 14.11761771 0.0944577 16.23413086 0.11352539 C15.57413086 1.43352539 14.91413086 2.75352539 14.23413086 4.11352539 C13.90413086 3.78352539 13.57413086 3.45352539 13.23413086 3.11352539 C9.85469112 2.68263144 6.60609669 2.60799941 3.23413086 3.11352539 C0.69370826 5.45183497 0.69370826 5.45183497 -0.76586914 8.11352539 C-1.42586914 8.11352539 -2.08586914 8.11352539 -2.76586914 8.11352539 C-2.80828637 5.78057764 -2.80679851 3.44649972 -2.76586914 1.11352539 C-1.76586914 0.11352539 -1.76586914 0.11352539 0 0 Z " fill="#4B62C8" transform="translate(187.765869140625,227.886474609375)"/>
<path d="M0 0 C0.99 0.33 1.98 0.66 3 1 C5.00875442 0.72428861 7.01178687 0.39764263 9 0 C9 1.32 9 2.64 9 4 C7.35 4 5.7 4 4 4 C4 4.66 4 5.32 4 6 C2.68 6.33 1.36 6.66 0 7 C0 6.34 0 5.68 0 5 C-0.66 4.67 -1.32 4.34 -2 4 C-2 3.01 -2 2.02 -2 1 C-1.34 0.67 -0.68 0.34 0 0 Z " fill="#2C48DC" transform="translate(133,225)"/>
<path d="M0 0 C0.66 0.33 1.32 0.66 2 1 C0.68 3.64 -0.64 6.28 -2 9 C-2.66 9 -3.32 9 -4 9 C-3.67 11.97 -3.34 14.94 -3 18 C-3.99 17.67 -4.98 17.34 -6 17 C-5.72348824 10.00425241 -5.11247684 5.11247684 0 0 Z " fill="#394EC0" transform="translate(350,235)"/>
<path d="M0 0 C1.32 0.66 2.64 1.32 4 2 C2.35 3.65 0.7 5.3 -1 7 C-0.34 7.33 0.32 7.66 1 8 C-0.32 9.32 -1.64 10.64 -3 12 C-3.66 11.01 -4.32 10.02 -5 9 C-4.11644276 5.1444775 -3.08943092 2.52771621 0 0 Z " fill="#364DCB" transform="translate(181,226)"/>
<path d="M0 0 C0.33 0.99 0.66 1.98 1 3 C-3.62 3.33 -8.24 3.66 -13 4 C-13 4.66 -13 5.32 -13 6 C-14.32 5.67 -15.64 5.34 -17 5 C-11.38161724 0.02371813 -7.35571422 -0.14422969 0 0 Z " fill="#4559C5" transform="translate(410,232)"/>
<path d="M0 0 C3.10468986 2.54020079 3.98485936 5.17370067 5 9 C5 10.32 5 11.64 5 13 C2.03 12.67 -0.94 12.34 -4 12 C-3.34 11.34 -2.68 10.68 -2 10 C-0.68 10 0.64 10 2 10 C2 8.35 2 6.7 2 5 C1.34 4.67 0.68 4.34 0 4 C0 2.68 0 1.36 0 0 Z " fill="#5264C7" transform="translate(105,224)"/>
<path d="M0 0 C1.98 0.66 3.96 1.32 6 2 C6.33 1.34 6.66 0.68 7 0 C7 0.99 7 1.98 7 3 C10.63 3.66 14.26 4.32 18 5 C17.67 5.66 17.34 6.32 17 7 C10.83275229 7.44051769 6.07762523 6.78605971 1 3 C0.67 2.01 0.34 1.02 0 0 Z " fill="#6674C5" transform="translate(347,257)"/>
<path d="M0 0 C1.46366342 0.39753821 2.9208935 0.81881384 4.375 1.25 C5.18710937 1.48203125 5.99921875 1.7140625 6.8359375 1.953125 C9 3 9 3 10.3515625 4.984375 C11 7 11 7 10 9 C7.69 8.67 5.38 8.34 3 8 C3.99 7.34 4.98 6.68 6 6 C3.36 4.68 0.72 3.36 -2 2 C-1.34 1.34 -0.68 0.68 0 0 Z " fill="#4156D1" transform="translate(307,231)"/>
<path d="M0 0 C3.63 0.33 7.26 0.66 11 1 C8.16569547 4.2542015 6.31392226 5.5206753 2 6 C2 5.01 2 4.02 2 3 C1.01 2.67 0.02 2.34 -1 2 C-0.67 1.34 -0.34 0.68 0 0 Z " fill="#2845D0" transform="translate(354,233)"/>
<path d="M0 0 C3.465 1.485 3.465 1.485 7 3 C7.33 2.01 7.66 1.02 8 0 C8.66 0.33 9.32 0.66 10 1 C9.2890625 2.921875 9.2890625 2.921875 8 5 C5.8359375 5.828125 5.8359375 5.828125 3.375 6.25 C2.14910156 6.47429687 2.14910156 6.47429687 0.8984375 6.703125 C0.27195312 6.80109375 -0.35453125 6.8990625 -1 7 C-1.04254356 5.00045254 -1.04080783 2.99958364 -1 1 C-0.67 0.67 -0.34 0.34 0 0 Z " fill="#2C40BF" transform="translate(89,268)"/>
<path d="M0 0 C0.66 0 1.32 0 2 0 C2.66 5.94 3.32 11.88 4 18 C3.01 17.67 2.02 17.34 1 17 C0.63601378 14.91835982 0.28416713 12.83459438 -0.0625 10.75 C-0.25972656 9.58984375 -0.45695312 8.4296875 -0.66015625 7.234375 C-0.9606216 4.37477376 -0.9439206 2.66674071 0 0 Z " fill="#3C56C2" transform="translate(110,259)"/>
<path d="M0 0 C2.97 0.33 5.94 0.66 9 1 C9 1.99 9 2.98 9 4 C3.58461538 6.21538462 3.58461538 6.21538462 0.625 5.125 C0.08875 4.75375 -0.4475 4.3825 -1 4 C-0.67 2.68 -0.34 1.36 0 0 Z " fill="#2947D9" transform="translate(354,256)"/>
<path d="M0 0 C0.86625 0.3403125 0.86625 0.3403125 1.75 0.6875 C1.42 3.3275 1.09 5.9675 0.75 8.6875 C-0.24 9.0175 -1.23 9.3475 -2.25 9.6875 C-2.25 8.0375 -2.25 6.3875 -2.25 4.6875 C-3.57 4.0275 -4.89 3.3675 -6.25 2.6875 C-2.80384615 -0.38942308 -2.80384615 -0.38942308 0 0 Z " fill="#263BB8" transform="translate(108.25,251.3125)"/>
<path d="M0 0 C2.9719385 1.12451727 5.33440687 2.22293791 8 4 C8 4.66 8 5.32 8 6 C8.66 6 9.32 6 10 6 C10 6.66 10 7.32 10 8 C9.01 8 8.02 8 7 8 C6.34 7.01 5.68 6.02 5 5 C3.01508358 5.26676204 3.01508358 5.26676204 1 6 C0.67 6.99 0.34 7.98 0 9 C-0.33 9 -0.66 9 -1 9 C-1.09765625 2.84765625 -1.09765625 2.84765625 -1 1 C-0.67 0.67 -0.34 0.34 0 0 Z " fill="#4E62CB" transform="translate(95,216)"/>
<path d="M0 0 C0.66 0.33 1.32 0.66 2 1 C1.67 3.31 1.34 5.62 1 8 C-0.65 8 -2.3 8 -4 8 C-4.33 6.35 -4.66 4.7 -5 3 C-2.625 1.4375 -2.625 1.4375 0 0 Z " fill="#2A46D5" transform="translate(372,240)"/>
<path d="M0 0 C0.99 0.33 1.98 0.66 3 1 C3 5 3 5 2 7 C0.35 6.67 -1.3 6.34 -3 6 C-3 4.68 -3 3.36 -3 2 C-2.01 1.34 -1.02 0.68 0 0 Z " fill="#2A48DD" transform="translate(94,264)"/>
<path d="M0 0 C1 1 1 1 1.0625 4.0625 C1.041875 5.031875 1.02125 6.00125 1 7 C0.67 7 0.34 7 0 7 C-0.33 5.35 -0.66 3.7 -1 2 C-2.65 2.33 -4.3 2.66 -6 3 C-6 4.98 -6 6.96 -6 9 C-6.99 8.34 -7.98 7.68 -9 7 C-8.67 4.69 -8.34 2.38 -8 0 C-4.69676014 -1.10107995 -3.29495231 -0.86709271 0 0 Z " fill="#2939AA" transform="translate(431,220)"/>
<path d="M0 0 C2.31 0 4.62 0 7 0 C7 1.65 7 3.3 7 5 C4.69 5 2.38 5 0 5 C0 3.35 0 1.7 0 0 Z " fill="#2643D3" transform="translate(306,256)"/>
<path d="M0 0 C0.99 0 1.98 0 3 0 C3.66 1.65 4.32 3.3 5 5 C4.01 5 3.02 5 2 5 C1.67 5.66 1.34 6.32 1 7 C1 6.34 1 5.68 1 5 C-1.97 4.67 -4.94 4.34 -8 4 C-8 3.67 -8 3.34 -8 3 C-5.36 2.67 -2.72 2.34 0 2 C0 1.34 0 0.68 0 0 Z " fill="#4B5ECD" transform="translate(203,252)"/>
<path d="M0 0 C1.75 1.4375 1.75 1.4375 3 3 C3 3.66 3 4.32 3 5 C4.65 5 6.3 5 8 5 C8 5.33 8 5.66 8 6 C4.05272412 6.17942163 1.4019487 6.09350689 -2 4 C-2 3.01 -2 2.02 -2 1 C-4.97 1 -7.94 1 -11 1 C-11 0.67 -11 0.34 -11 0 C-3.16438356 -1.35616438 -3.16438356 -1.35616438 0 0 Z " fill="#2339BF" transform="translate(279,256)"/>
<path d="M0 0 C1.98 0 3.96 0 6 0 C5.34 0.66 4.68 1.32 4 2 C4 3.32 4 4.64 4 6 C4.99 5.01 5.98 4.02 7 3 C5.87548273 5.9719385 4.77706209 8.33440687 3 11 C2.49632243 9.54293274 1.99717444 8.08429904 1.5 6.625 C1.2215625 5.81289063 0.943125 5.00078125 0.65625 4.1640625 C0 2 0 2 0 0 Z " fill="#5763CF" transform="translate(125,252)"/>
<path d="M0 0 C0.66 0 1.32 0 2 0 C2.05389087 1.95803507 2.09274217 3.91648909 2.125 5.875 C2.14820313 6.96554688 2.17140625 8.05609375 2.1953125 9.1796875 C2 12 2 12 0 14 C-0.99 13.67 -1.98 13.34 -3 13 C-2.34 13 -1.68 13 -1 13 C-1.01160156 12.14535156 -1.02320313 11.29070312 -1.03515625 10.41015625 C-1.04417969 9.30542969 -1.05320312 8.20070312 -1.0625 7.0625 C-1.07410156 5.96035156 -1.08570313 4.85820312 -1.09765625 3.72265625 C-1 1 -1 1 0 0 Z " fill="#5065C7" transform="translate(279,241)"/>
<path d="M0 0 C0.66 0.33 1.32 0.66 2 1 C1.34 2.65 0.68 4.3 0 6 C1.32 6.66 2.64 7.32 4 8 C3.01 8.33 2.02 8.66 1 9 C-1.6875 7.5625 -1.6875 7.5625 -4 6 C-3.6875 4.125 -3.6875 4.125 -3 2 C-2.01 1.34 -1.02 0.68 0 0 Z " fill="#6171C7" transform="translate(81,240)"/>
<path d="M0 0 C2.97 0.33 5.94 0.66 9 1 C9 1.99 9 2.98 9 4 C4.545 4.495 4.545 4.495 0 5 C0 3.35 0 1.7 0 0 Z " fill="#3B56D3" transform="translate(195,241)"/>
<path d="M0 0 C2.97 0.495 2.97 0.495 6 1 C6.33 1.99 6.66 2.98 7 4 C1.25 8 1.25 8 -1 8 C-1 6 -1 6 1 4 C0.6814823 1.89179203 0.6814823 1.89179203 0 0 Z " fill="#5263C5" transform="translate(152,241)"/>
<path d="M0 0 C0.68707555 2.49064888 1 4.37886292 1 7 C1.66 6.67 2.32 6.34 3 6 C3 6.66 3 7.32 3 8 C4.32 8.33 5.64 8.66 7 9 C2.545 9.495 2.545 9.495 -2 10 C-1.125 2.25 -1.125 2.25 0 0 Z " fill="#5664C1" transform="translate(128,227)"/>
<path d="M0 0 C0 2.97 0 5.94 0 9 C-1.98 9 -3.96 9 -6 9 C-4.68 8.67 -3.36 8.34 -2 8 C-2 6.02 -2 4.04 -2 2 C-3.65 2.33 -5.3 2.66 -7 3 C-7 2.34 -7 1.68 -7 1 C-4 0 -4 0 0 0 Z " fill="#5B67BE" transform="translate(239,232)"/>
<path d="M0 0 C0.99 0.99 1.98 1.98 3 3 C2.34 4.32 1.68 5.64 1 7 C0.01 7 -0.98 7 -2 7 C-2.33 5.35 -2.66 3.7 -3 2 C-2.01 1.34 -1.02 0.68 0 0 Z " fill="#314ACD" transform="translate(144,265)"/>
<path d="M0 0 C0.804375 0.144375 1.60875 0.28875 2.4375 0.4375 C6.61359481 1.09688339 10.79598059 1.56091353 15 2 C14.67 2.66 14.34 3.32 14 4 C8.32723489 4.29341888 5.00932754 4.00559652 0 1 C0 0.67 0 0.34 0 0 Z " fill="#7983C3" transform="translate(298,260)"/>
<path d="M0 0 C0.33 0 0.66 0 1 0 C1.05384521 2.29141286 1.09272087 4.58318188 1.125 6.875 C1.14820312 8.15117187 1.17140625 9.42734375 1.1953125 10.7421875 C1 14 1 14 -1 16 C-1.22281874 14.08496326 -1.42771076 12.16783494 -1.625 10.25 C-1.74101563 9.18265625 -1.85703125 8.1153125 -1.9765625 7.015625 C-2.00029475 3.96207601 -1.61420985 2.53837579 0 0 Z " fill="#3245AF" transform="translate(124,257)"/>
<path d="M0 0 C1.32 0 2.64 0 4 0 C6.66436316 3.33045394 7.3619323 5.7774565 7 10 C5 8.8125 5 8.8125 3 7 C2.75 4.3125 2.75 4.3125 3 2 C1.68 2.33 0.36 2.66 -1 3 C-0.67 2.01 -0.34 1.02 0 0 Z " fill="#4C54BB" transform="translate(116,205)"/>
<path d="M0 0 C1.32 0 2.64 0 4 0 C3.67 0.99 3.34 1.98 3 3 C2.34 3 1.68 3 1 3 C1 3.66 1 4.32 1 5 C3.64 4.67 6.28 4.34 9 4 C9.33 4.66 9.66 5.32 10 6 C8.52168779 6.19412181 7.04230684 6.38012131 5.5625 6.5625 C4.73878906 6.66691406 3.91507812 6.77132812 3.06640625 6.87890625 C2.38449219 6.91886719 1.70257813 6.95882812 1 7 C0 6 0 6 -0.0625 2.9375 C-0.041875 1.968125 -0.02125 0.99875 0 0 Z " fill="#7D8EE0" transform="translate(354,239)"/>
<path d="M0 0 C0.33 0 0.66 0 1 0 C1 1.65 1 3.3 1 5 C3.97 5 6.94 5 10 5 C9.67 5.99 9.34 6.98 9 8 C6.05610218 9.17755913 5.10046087 9.03348696 2 8 C2 7.34 2 6.68 2 6 C1.34 6 0.68 6 0 6 C0 4.02 0 2.04 0 0 Z " fill="#7180CB" transform="translate(240,222)"/>
<path d="M0 0 C2.625 0.375 2.625 0.375 5 1 C5 1.66 5 2.32 5 3 C5.66 3.33 6.32 3.66 7 4 C4 6 4 6 1 6 C0.67 5.01 0.34 4.02 0 3 C-0.66 2.67 -1.32 2.34 -2 2 C-1.34 1.34 -0.68 0.68 0 0 Z " fill="#2840C6" transform="translate(317,257)"/>
<path d="M0 0 C0.66 0 1.32 0 2 0 C2.19573608 1.43640171 2.38127816 2.87419504 2.5625 4.3125 C2.66691406 5.11300781 2.77132813 5.91351563 2.87890625 6.73828125 C3 9 3 9 2 12 C1.34 12 0.68 12 0 12 C0 8.04 0 4.08 0 0 Z " fill="#3449BA" transform="translate(255,242)"/>
<path d="M0 0 C0.66 0 1.32 0 2 0 C2.33 1.32 2.66 2.64 3 4 C3.66 4 4.32 4 5 4 C5.33 5.32 5.66 6.64 6 8 C5.34 8 4.68 8 4 8 C4 7.34 4 6.68 4 6 C2.35 5.67 0.7 5.34 -1 5 C-1.33 4.01 -1.66 3.02 -2 2 C-1.34 2 -0.68 2 0 2 C0 1.34 0 0.68 0 0 Z " fill="#2441CD" transform="translate(395,248)"/>
<path d="M0 0 C4.50206785 -0.17655168 7.98974995 -0.17699288 12 2 C12.99 3.485 12.99 3.485 14 5 C10.88200997 4.24964259 7.81929597 3.36636589 4.75 2.4375 C3.85796875 2.16808594 2.9659375 1.89867187 2.046875 1.62109375 C1.37140625 1.41613281 0.6959375 1.21117187 0 1 C0 0.67 0 0.34 0 0 Z " fill="#4E67C2" transform="translate(357,232)"/>
<path d="M0 0 C0.99 0.66 1.98 1.32 3 2 C0.03 4.475 0.03 4.475 -3 7 C-3.66 6.67 -4.32 6.34 -5 6 C-5 5.01 -5 4.02 -5 3 C-4.01 3 -3.02 3 -2 3 C-2 2.34 -2 1.68 -2 1 C-1.34 0.67 -0.68 0.34 0 0 Z " fill="#3D54C5" transform="translate(139,228)"/>
<path d="M0 0 C0.33 0 0.66 0 1 0 C1 1.98 1 3.96 1 6 C0.34 6 -0.32 6 -1 6 C-1 6.66 -1 7.32 -1 8 C-4.75 9.125 -4.75 9.125 -7 8 C-7 7.34 -7 6.68 -7 6 C-5.68 6 -4.36 6 -3 6 C-2.67 5.01 -2.34 4.02 -2 3 C-1.67 3.33 -1.34 3.66 -1 4 C-0.67 2.68 -0.34 1.36 0 0 Z " fill="#5A68C3" transform="translate(432,222)"/>
<path d="M0 0 C1.32 0 2.64 0 4 0 C4 1.98 4 3.96 4 6 C2.35 6.33 0.7 6.66 -1 7 C-0.67 4.69 -0.34 2.38 0 0 Z " fill="#2B43D4" transform="translate(233,234)"/>
<path d="M0 0 C6.57142857 5 6.57142857 5 8 10 C7.01 10 6.02 10 5 10 C4.731875 9.195625 4.46375 8.39125 4.1875 7.5625 C3.795625 6.716875 3.40375 5.87125 3 5 C2.01 4.67 1.02 4.34 0 4 C0 2.68 0 1.36 0 0 Z " fill="#485AC1" transform="translate(138,256)"/>
<path d="M0 0 C2.4375 1.1875 2.4375 1.1875 3.4375 3.1875 C1.75 4.3125 1.75 4.3125 -0.5625 5.1875 C-3.3125 4.3125 -3.3125 4.3125 -5.5625 3.1875 C-4.9025 2.8575 -4.2425 2.5275 -3.5625 2.1875 C-2.9025 2.5175 -2.2425 2.8475 -1.5625 3.1875 C-1.5625 2.5275 -1.5625 1.8675 -1.5625 1.1875 C-2.5525 0.8575 -3.5425 0.5275 -4.5625 0.1875 C-2.5625 -0.8125 -2.5625 -0.8125 0 0 Z " fill="#4960D6" transform="translate(188.5625,257.8125)"/>
<path d="M0 0 C0.33 0.66 0.66 1.32 1 2 C1.66 2 2.32 2 3 2 C2.34 3.98 1.68 5.96 1 8 C1.99 8.33 2.98 8.66 4 9 C2.68 9.33 1.36 9.66 0 10 C-1.125 3.375 -1.125 3.375 0 0 Z " fill="#4057DD" transform="translate(231,233)"/>
<path d="M0 0 C0.99 0.33 1.98 0.66 3 1 C2.39301257 5.12751449 0.96189209 8.3321148 -1 12 C-2.09898702 8.70303895 -1.87124444 7.59505097 -1.0625 4.3125 C-0.86785156 3.50425781 -0.67320313 2.69601562 -0.47265625 1.86328125 C-0.31667969 1.24839844 -0.16070312 0.63351562 0 0 Z " fill="#5E6ECB" transform="translate(122,270)"/>
<path d="M0 0 C0.99 0.33 1.98 0.66 3 1 C2.67 1.99 2.34 2.98 2 4 C0.67203709 4.35412344 -0.66216607 4.68521554 -2 5 C-3.73026102 6.47890069 -3.73026102 6.47890069 -5 8 C-5.33 6.68 -5.66 5.36 -6 4 C-4.02 3.34 -2.04 2.68 0 2 C0 1.34 0 0.68 0 0 Z " fill="#3D54D0" transform="translate(351,249)"/>
<path d="M0 0 C0 0.66 0 1.32 0 2 C-1.32 2.33 -2.64 2.66 -4 3 C-4 3.66 -4 4.32 -4 5 C-4.66 5 -5.32 5 -6 5 C-6 5.66 -6 6.32 -6 7 C-6.99 6.67 -7.98 6.34 -9 6 C-4.53846154 0 -4.53846154 0 0 0 Z " fill="#5B68C8" transform="translate(399,245)"/>
<path d="M0 0 C0 1.98 0 3.96 0 6 C-1.65 5.67 -3.3 5.34 -5 5 C-4.625 3.0625 -4.625 3.0625 -4 1 C-2 0 -2 0 0 0 Z " fill="#2B46DC" transform="translate(86,241)"/>
<path d="M0 0 C1.1446875 0.2475 1.1446875 0.2475 2.3125 0.5 C5.03596236 1.09145396 5.03596236 1.09145396 8 1 C8 1.66 8 2.32 8 3 C5.69 3.33 3.38 3.66 1 4 C0.67 2.68 0.34 1.36 0 0 Z " fill="#3250D8" transform="translate(221,234)"/>
<path d="M0 0 C0.66 0 1.32 0 2 0 C2.33 2.31 2.66 4.62 3 7 C1.35 6.67 -0.3 6.34 -2 6 C-1.34 4.02 -0.68 2.04 0 0 Z " fill="#4457C7" transform="translate(248,220)"/>
<path d="M0 0 C2.64 0.33 5.28 0.66 8 1 C8 1.66 8 2.32 8 3 C6.02 3 4.04 3 2 3 C2 3.99 2 4.98 2 6 C1.34 6 0.68 6 0 6 C0 4.02 0 2.04 0 0 Z " fill="#2C3FAC" transform="translate(279,220)"/>
<path d="M0 0 C0.66 0.66 1.32 1.32 2 2 C1.625 5.125 1.625 5.125 1 8 C-0.32 7.01 -1.64 6.02 -3 5 C-1.125 1.125 -1.125 1.125 0 0 Z " fill="#2845D3" transform="translate(93,215)"/>
<path d="M0 0 C0.95465783 2.16967689 1.14401212 3.56328793 0.3984375 5.82421875 C-0.35870385 7.5684743 -1.17609198 9.28627131 -2 11 C-2.66 11 -3.32 11 -4 11 C-3.48964169 6.6109185 -2.47785723 3.66291938 0 0 Z " fill="#6372C9" transform="translate(115,248)"/>
<path d="M0 0 C0.66 0 1.32 0 2 0 C1.67 5.94 1.34 11.88 1 18 C0.67 18 0.34 18 0 18 C-0.19430855 15.3753399 -0.38073238 12.75053235 -0.5625 10.125 C-0.61857422 9.37863281 -0.67464844 8.63226563 -0.73242188 7.86328125 C-1.11328125 2.2265625 -1.11328125 2.2265625 0 0 Z " fill="#414FBB" transform="translate(227,244)"/>
<path d="M0 0 C0.20625 0.639375 0.4125 1.27875 0.625 1.9375 C1.89538209 4.34925077 1.89538209 4.34925077 5.125 4.75 C6.07375 4.8325 7.0225 4.915 8 5 C4.86501708 6.85776765 2.62528568 7.20140476 -1 7 C-0.67 4.69 -0.34 2.38 0 0 Z " fill="#6174D1" transform="translate(302,250)"/>
<path d="M0 0 C0.66 0.99 1.32 1.98 2 3 C1.67 3.66 1.34 4.32 1 5 C0.34 5 -0.32 5 -1 5 C-1.33 5.99 -1.66 6.98 -2 8 C-3.32 6.68 -4.64 5.36 -6 4 C-5.38125 3.896875 -4.7625 3.79375 -4.125 3.6875 C-1.63473516 3.12474627 -1.63473516 3.12474627 0 0 Z " fill="#445CD2" transform="translate(300,252)"/>
<path d="M0 0 C3.465 1.485 3.465 1.485 7 3 C6.1028125 3.1546875 6.1028125 3.1546875 5.1875 3.3125 C2.91889034 3.84018987 2.91889034 3.84018987 1.4375 5.5625 C0.7259375 6.2740625 0.7259375 6.2740625 0 7 C-0.99 7 -1.98 7 -3 7 C-3 6.34 -3 5.68 -3 5 C-2 4 -1 3 0 2 C0 1.34 0 0.68 0 0 Z " fill="#546BD3" transform="translate(108,239)"/>
<path d="M0 0 C0.66 0.33 1.32 0.66 2 1 C0.86500606 4.29148243 0.00716624 4.9959869 -3.125 6.75 C-4.548125 7.36875 -4.548125 7.36875 -6 8 C-4.55746343 4.63408134 -2.66735273 2.48952921 0 0 Z " fill="#5466C5" transform="translate(300,233)"/>
<path d="M0 0 C2.875 0.25 2.875 0.25 6 1 C7.375 3.0625 7.375 3.0625 8 5 C5.69 5 3.38 5 1 5 C1.66 4.67 2.32 4.34 3 4 C3 3.01 3 2.02 3 1 C2.01 0.67 1.02 0.34 0 0 Z " fill="#485CD1" transform="translate(407,250)"/>
<path d="M0 0 C1.32 0.66 2.64 1.32 4 2 C4 2.99 4 3.98 4 5 C1.69 4.67 -0.62 4.34 -3 4 C-2.01 2.68 -1.02 1.36 0 0 Z " fill="#3853CF" transform="translate(147,245)"/>
<path d="M0 0 C2.31 0 4.62 0 7 0 C7 0.99 7 1.98 7 3 C6.05125 2.95875 5.1025 2.9175 4.125 2.875 C0.89755144 2.65026182 0.89755144 2.65026182 -1 5 C-0.67 3.35 -0.34 1.7 0 0 Z " fill="#5363CD" transform="translate(402,238)"/>
<path d="M0 0 C0.66 0.66 1.32 1.32 2 2 C2.99 2 3.98 2 5 2 C5.66 3.32 6.32 4.64 7 6 C4.69 5.67 2.38 5.34 0 5 C0 3.35 0 1.7 0 0 Z " fill="#2643C7" transform="translate(241,222)"/>
<path d="M0 0 C0 2 0 2 -1.125 3.5625 C-3.63946978 5.49026016 -5.89545967 5.65505107 -9 6 C-3.15384615 0 -3.15384615 0 0 0 Z " fill="#6978CA" transform="translate(141,216)"/>
<path d="M0 0 C0 1.65 0 3.3 0 5 C-4.75 4.25 -4.75 4.25 -7 2 C-2.25 0 -2.25 0 0 0 Z " fill="#6677C3" transform="translate(148,270)"/>
<path d="M0 0 C2 1 2 1 4 3 C4 3.99 4 4.98 4 6 C3.34 6 2.68 6 2 6 C1.67 6.66 1.34 7.32 1 8 C1 7.01 1 6.02 1 5 C0.34 5 -0.32 5 -1 5 C-0.67 3.35 -0.34 1.7 0 0 Z " fill="#3A56D8" transform="translate(352,233)"/>
<path d="M0 0 C4.73509934 3.3995585 4.73509934 3.3995585 5.9375 6.125 C5.958125 6.74375 5.97875 7.3625 6 8 C5.34 8.66 4.68 9.32 4 10 C3.9175 9.05125 3.835 8.1025 3.75 7.125 C3.34925077 3.89538209 3.34925077 3.89538209 0.9375 2.625 C0.298125 2.41875 -0.34125 2.2125 -1 2 C-0.67 1.34 -0.34 0.68 0 0 Z " fill="#5568C6" transform="translate(413,233)"/>
<path d="M0 0 C0.66 0.33 1.32 0.66 2 1 C1.01 3.97 0.02 6.94 -1 10 C-1.66 10 -2.32 10 -3 10 C-2.49287967 6.28111761 -1.88391785 3.26545761 0 0 Z " fill="#5866C3" transform="translate(114,208)"/>
<path d="M0 0 C2.97 0.33 5.94 0.66 9 1 C5.71299843 2.64350079 3.52069985 3.41321669 0 4 C0 2.68 0 1.36 0 0 Z " fill="#6E79C7" transform="translate(88,271)"/>
<path d="M0 0 C0.66 0.33 1.32 0.66 2 1 C1.67 2.32 1.34 3.64 1 5 C0.34 5 -0.32 5 -1 5 C-1.33 5.99 -1.66 6.98 -2 8 C-2.33 7.01 -2.66 6.02 -3 5 C-1.5625 2.3125 -1.5625 2.3125 0 0 Z " fill="#4D5FC8" transform="translate(92,261)"/>
<path d="M0 0 C-0.33 1.65 -0.66 3.3 -1 5 C-1.99 5.33 -2.98 5.66 -4 6 C-4 4.35 -4 2.7 -4 1 C-2 0 -2 0 0 0 Z " fill="#2948DF" transform="translate(106,258)"/>
<path d="M0 0 C0.99 0.33 1.98 0.66 3 1 C3 2.32 3 3.64 3 5 C3.66 5 4.32 5 5 5 C5 5.66 5 6.32 5 7 C3.02 6.34 1.04 5.68 -1 5 C-0.67 3.35 -0.34 1.7 0 0 Z " fill="#4758CE" transform="translate(379,257)"/>
<path d="M0 0 C0.99 0 1.98 0 3 0 C3.33 0.99 3.66 1.98 4 3 C3.67 3.66 3.34 4.32 3 5 C4.32 4.67 5.64 4.34 7 4 C6.67 5.32 6.34 6.64 6 8 C4.125 7.375 4.125 7.375 2 6 C0.75 2.875 0.75 2.875 0 0 Z " fill="#6074D8" transform="translate(311,255)"/>
<path d="M0 0 C0.99 0 1.98 0 3 0 C3.33 1.32 3.66 2.64 4 4 C5.32 4 6.64 4 8 4 C8 4.66 8 5.32 8 6 C2.33846154 4.52307692 2.33846154 4.52307692 0.625 1.875 C0.41875 1.25625 0.2125 0.6375 0 0 Z " fill="#3244B7" transform="translate(179,255)"/>
<path d="M0 0 C-0.33 1.32 -0.66 2.64 -1 4 C-2.98 4.33 -4.96 4.66 -7 5 C-2.25 0 -2.25 0 0 0 Z " fill="#2742CE" transform="translate(302,250)"/>
<path d="M0 0 C3 1 3 1 4.75 3.9375 C5.1625 4.948125 5.575 5.95875 6 7 C5.67 7.66 5.34 8.32 5 9 C4.34 9 3.68 9 3 9 C2.67 6.69 2.34 4.38 2 2 C1.34 2 0.68 2 0 2 C0 1.34 0 0.68 0 0 Z " fill="#515FC5" transform="translate(208,224)"/>
<path d="M0 0 C0 0.33 0 0.66 0 1 C-3.3 1 -6.6 1 -10 1 C-6.37535939 -2.62464061 -4.33962722 -1.99388278 0 0 Z " fill="#1C36B7" transform="translate(200,228)"/>
<path d="M0 0 C-0.33 2.64 -0.66 5.28 -1 8 C-1.33 8 -1.66 8 -2 8 C-2.103125 7.05125 -2.20625 6.1025 -2.3125 5.125 C-2.68539295 1.70892499 -2.68539295 1.70892499 -6 0 C-3.50907189 -1.24546405 -2.58919267 -0.7767578 0 0 Z " fill="#7B95D7" transform="translate(110,252)"/>
<path d="M0 0 C0.33 0 0.66 0 1 0 C1 4.29 1 8.58 1 13 C0.01 12.67 -0.98 12.34 -2 12 C-1.34 8.04 -0.68 4.08 0 0 Z " fill="#2544D8" transform="translate(324,248)"/>
<path d="M0 0 C0.66 0.33 1.32 0.66 2 1 C1.34 2.32 0.68 3.64 0 5 C-0.99 5 -1.98 5 -3 5 C-3 3.68 -3 2.36 -3 1 C-2.01 0.67 -1.02 0.34 0 0 Z " fill="#465DCB" transform="translate(127,239)"/>
<path d="M0 0 C0.66 0.33 1.32 0.66 2 1 C2 3.31 2 5.62 2 8 C1.01 8 0.02 8 -1 8 C-1 6.68 -1 5.36 -1 4 C-1.66 3.34 -2.32 2.68 -3 2 C-2.01 2 -1.02 2 0 2 C0 1.34 0 0.68 0 0 Z " fill="#283FC3" transform="translate(229,235)"/>
<path d="M0 0 C0.99 0.33 1.98 0.66 3 1 C2.67 1.99 2.34 2.98 2 4 C0.35 4.33 -1.3 4.66 -3 5 C-1.125 1.125 -1.125 1.125 0 0 Z " fill="#2A4ADE" transform="translate(183,228)"/>
<path d="M0 0 C0.66 0.33 1.32 0.66 2 1 C1.67 2.65 1.34 4.3 1 6 C0.01 6 -0.98 6 -2 6 C-2.33 5.01 -2.66 4.02 -3 3 C-2.01 3 -1.02 3 0 3 C0 2.01 0 1.02 0 0 Z " fill="#727ECB" transform="translate(387,256)"/>
<path d="M0 0 C0.33 0 0.66 0 1 0 C1.33 2.97 1.66 5.94 2 9 C1.01 8.67 0.02 8.34 -1 8 C-1.125 2.25 -1.125 2.25 0 0 Z " fill="#0D1BB3" transform="translate(345,244)"/>
<path d="M0 0 C0 2.62113708 -0.31292445 4.50935112 -1 7 C-1.66 6.34 -2.32 5.68 -3 5 C-2.75 2.9375 -2.75 2.9375 -2 1 C-1.34 0.67 -0.68 0.34 0 0 Z " fill="#2A49E4" transform="translate(180,236)"/>
<path d="M0 0 C0.99 0.66 1.98 1.32 3 2 C0.6875 3.5625 0.6875 3.5625 -2 5 C-2.99 4.67 -3.98 4.34 -5 4 C-3.35 2.68 -1.7 1.36 0 0 Z " fill="#4553C4" transform="translate(262,234)"/>
<path d="M0 0 C-0.99 1.485 -0.99 1.485 -2 3 C-2.33 2.67 -2.66 2.34 -3 2 C-4.34747084 1.76924918 -5.70377565 1.58846937 -7.0625 1.4375 C-8.361875 1.293125 -9.66125 1.14875 -11 1 C-11 0.67 -11 0.34 -11 0 C-3.57142857 -1.28571429 -3.57142857 -1.28571429 0 0 Z " fill="#7884DF" transform="translate(204,229)"/>
<path d="M0 0 C2.125 0.9375 2.125 0.9375 4 2 C1.525 3.485 1.525 3.485 -1 5 C-1.33 3.68 -1.66 2.36 -2 1 C-1.34 0.67 -0.68 0.34 0 0 Z " fill="#3F58CD" transform="translate(203,222)"/>
<path d="" fill="#FFFFFF" transform="translate(0,0)"/>
<path d="" fill="#FFFFFF" transform="translate(0,0)"/>
<path d="" fill="#FFFFFF" transform="translate(0,0)"/>
<path d="" fill="#FFFFFF" transform="translate(0,0)"/>
<path d="" fill="#FFFFFF" transform="translate(0,0)"/>
<path d="" fill="#FFFFFF" transform="translate(0,0)"/>
<path d="" fill="#FFFFFF" transform="translate(0,0)"/>
<path d="" fill="#FFFFFF" transform="translate(0,0)"/>
<path d="" fill="#FFFFFF" transform="translate(0,0)"/>
<path d="" fill="#FFFFFF" transform="translate(0,0)"/>
<path d="" fill="#FFFFFF" transform="translate(0,0)"/>
<path d="" fill="#FFFFFF" transform="translate(0,0)"/>
<path d="" fill="#FFFFFF" transform="translate(0,0)"/>
<path d="" fill="#FFFFFF" transform="translate(0,0)"/>
<path d="" fill="#FFFFFF" transform="translate(0,0)"/>
<path d="" fill="#FFFFFF" transform="translate(0,0)"/>
<path d="" fill="#FFFFFF" transform="translate(0,0)"/>
<path d="" fill="#FFFFFF" transform="translate(0,0)"/>
<path d="" fill="#FFFFFF" transform="translate(0,0)"/>
<path d="" fill="#FFFFFF" transform="translate(0,0)"/>
<path d="" fill="#FFFFFF" transform="translate(0,0)"/>
<path d="" fill="#FFFFFF" transform="translate(0,0)"/>
<path d="" fill="#FFFFFF" transform="translate(0,0)"/>
<path d="" fill="#FFFFFF" transform="translate(0,0)"/>
<path d="" fill="#FFFFFF" transform="translate(0,0)"/>
<path d="" fill="#FFFFFF" transform="translate(0,0)"/>
<path d="" fill="#FFFFFF" transform="translate(0,0)"/>
<path d="" fill="#FFFFFF" transform="translate(0,0)"/>
<path d="" fill="#FFFFFF" transform="translate(0,0)"/>
<path d="" fill="#FFFFFF" transform="translate(0,0)"/>
<path d="" fill="#FFFFFF" transform="translate(0,0)"/>
<path d="" fill="#FFFFFF" transform="translate(0,0)"/>
<path d="" fill="#FFFFFF" transform="translate(0,0)"/>
<path d="" fill="#FFFFFF" transform="translate(0,0)"/>
<path d="" fill="#FFFFFF" transform="translate(0,0)"/>
<path d="" fill="#FFFFFF" transform="translate(0,0)"/>
<path d="" fill="#FFFFFF" transform="translate(0,0)"/>
<path d="" fill="#FFFFFF" transform="translate(0,0)"/>
<path d="" fill="#FFFFFF" transform="translate(0,0)"/>
<path d="" fill="#FFFFFF" transform="translate(0,0)"/>
<path d="" fill="#FFFFFF" transform="translate(0,0)"/>
<path d="" fill="#FFFFFF" transform="translate(0,0)"/>
<path d="" fill="#FFFFFF" transform="translate(0,0)"/>
<path d="" fill="#FFFFFF" transform="translate(0,0)"/>
<path d="" fill="#FFFFFF" transform="translate(0,0)"/>
<path d="" fill="#FFFFFF" transform="translate(0,0)"/>
<path d="" fill="#FFFFFF" transform="translate(0,0)"/>
<path d="" fill="#FFFFFF" transform="translate(0,0)"/>
<path d="" fill="#FFFFFF" transform="translate(0,0)"/>
<path d="" fill="#FFFFFF" transform="translate(0,0)"/>
<path d="" fill="#FFFFFF" transform="translate(0,0)"/>
<path d="" fill="#FFFFFF" transform="translate(0,0)"/>
<path d="" fill="#FFFFFF" transform="translate(0,0)"/>
<path d="" fill="#FFFFFF" transform="translate(0,0)"/>
<path d="" fill="#FFFFFF" transform="translate(0,0)"/>
<path d="" fill="#FFFFFF" transform="translate(0,0)"/>
<path d="" fill="#FFFFFF" transform="translate(0,0)"/>
<path d="" fill="#FFFFFF" transform="translate(0,0)"/>
<path d="" fill="#FFFFFF" transform="translate(0,0)"/>
<path d="" fill="#FFFFFF" transform="translate(0,0)"/>
<path d="" fill="#FFFFFF" transform="translate(0,0)"/>
<path d="" fill="#FFFFFF" transform="translate(0,0)"/>
<path d="" fill="#FFFFFF" transform="translate(0,0)"/>
<path d="" fill="#FFFFFF" transform="translate(0,0)"/>
<path d="" fill="#FFFFFF" transform="translate(0,0)"/>
<path d="" fill="#FFFFFF" transform="translate(0,0)"/>
<path d="" fill="#FFFFFF" transform="translate(0,0)"/>
<path d="" fill="#FFFFFF" transform="translate(0,0)"/>
<path d="" fill="#FFFFFF" transform="translate(0,0)"/>
<path d="" fill="#FFFFFF" transform="translate(0,0)"/>
<path d="" fill="#FFFFFF" transform="translate(0,0)"/>
<path d="" fill="#FFFFFF" transform="translate(0,0)"/>
<path d="" fill="#FFFFFF" transform="translate(0,0)"/>
<path d="" fill="#FFFFFF" transform="translate(0,0)"/>
<path d="" fill="#FFFFFF" transform="translate(0,0)"/>
<path d="" fill="#FFFFFF" transform="translate(0,0)"/>
<path d="" fill="#FFFFFF" transform="translate(0,0)"/>
<path d="" fill="#FFFFFF" transform="translate(0,0)"/>
<path d="" fill="#FFFFFF" transform="translate(0,0)"/>
<path d="" fill="#FFFFFF" transform="translate(0,0)"/>
<path d="" fill="#FFFFFF" transform="translate(0,0)"/>
<path d="" fill="#FFFFFF" transform="translate(0,0)"/>
<path d="" fill="#FFFFFF" transform="translate(0,0)"/>
<path d="" fill="#FFFFFF" transform="translate(0,0)"/>
<path d="" fill="#FFFFFF" transform="translate(0,0)"/>
<path d="" fill="#FFFFFF" transform="translate(0,0)"/>
<path d="" fill="#FFFFFF" transform="translate(0,0)"/>
<path d="" fill="#FFFFFF" transform="translate(0,0)"/>
<path d="" fill="#FFFFFF" transform="translate(0,0)"/>
<path d="" fill="#FFFFFF" transform="translate(0,0)"/>
<path d="" fill="#FFFFFF" transform="translate(0,0)"/>
<path d="" fill="#FFFFFF" transform="translate(0,0)"/>
<path d="" fill="#FFFFFF" transform="translate(0,0)"/>
<path d="" fill="#FFFFFF" transform="translate(0,0)"/>
<path d="" fill="#FFFFFF" transform="translate(0,0)"/>
</svg>
